<svg id="Layer_1" data-name="Layer 1" xmlns="http://www.w3.org/2000/svg" viewBox="0 0 724 681"><defs><style>.cls-1{fill:#652e8e;}.cls-2{fill:#05773d;}.cls-3{fill:#e86825;}</style></defs><title>QS logo spiral vector</title><g id="purple"><polygon class="cls-1" points="279.33 200.58 251.71 187.86 263.75 164.33 290.1 179.54 279.33 200.58"/><polygon class="cls-1" points="256.33 328.76 258.99 351.97 229.26 357.07 226.29 330.9 256.33 328.76"/><polygon class="cls-1" points="261.84 366.92 268.13 387.96 239.65 399.13 232.24 373.73 261.84 366.92"/><polygon class="cls-1" points="349.67 109.09 330.36 85.56 351.69 69.97 368.79 95.11 349.67 109.09"/><polygon class="cls-1" points="272.62 149.91 288.24 128.61 312.12 147.68 296.99 166.01 272.62 149.91"/><polygon class="cls-1" points="321.15 135.44 298.92 115.5 318.23 97.42 338.35 119.15 321.15 135.44"/><polygon class="cls-1" points="265.72 236.77 238.66 229 246.67 204.07 273.37 214.46 265.72 236.77"/><polygon class="cls-1" points="232.35 244.68 261.99 251.52 257.19 274.16 227.59 270.66 232.35 244.68"/><polygon class="cls-1" points="255.25 313.24 255.71 289.76 225.82 287.47 224.82 313.67 255.25 313.24"/><polygon class="cls-1" points="365.94 60.99 386.32 49.69 399.71 77 381.61 87.08 365.94 60.99"/><polygon class="cls-1" points="273.72 403.78 282.27 421.36 254.71 436.28 245.43 414.96 273.72 403.78"/><polygon class="cls-1" points="279.33 200.58 251.71 187.86 263.75 164.33 290.1 179.54 279.33 200.58"/><polygon class="cls-1" points="256.33 328.76 258.99 351.97 229.26 357.07 226.29 330.9 256.33 328.76"/><polygon class="cls-1" points="261.84 366.92 268.13 387.96 239.65 399.13 232.24 373.73 261.84 366.92"/><polygon class="cls-1" points="349.67 109.09 330.36 85.56 351.69 69.97 368.79 95.11 349.67 109.09"/><polygon class="cls-1" points="272.62 149.91 288.24 128.61 312.12 147.68 296.99 166.01 272.62 149.91"/><polygon class="cls-1" points="321.15 135.44 298.92 115.5 318.23 97.42 338.35 119.15 321.15 135.44"/><polygon class="cls-1" points="265.72 236.77 238.66 229 246.67 204.07 273.37 214.46 265.72 236.77"/><polygon class="cls-1" points="232.35 244.68 261.99 251.52 257.19 274.16 227.59 270.66 232.35 244.68"/><polygon class="cls-1" points="255.25 313.24 255.71 289.76 225.82 287.47 224.82 313.67 255.25 313.24"/><polygon class="cls-1" points="365.94 60.99 386.32 49.69 399.71 77 381.61 87.08 365.94 60.99"/><polygon class="cls-1" points="273.72 403.78 282.27 421.36 254.71 436.28 245.43 414.96 273.72 403.78"/><polygon class="cls-1" points="359.34 120.81 377.27 107.67 394.34 132.9 378.67 144.32 359.34 120.81"/><polygon class="cls-1" points="355.81 166.54 333.15 146.18 348.54 130.22 369.21 152.53 355.81 166.54"/><polygon class="cls-1" points="287.38 220 315.77 231.15 309.58 249.27 280.91 239.73 287.38 220"/><polygon class="cls-1" points="293.38 206.53 303.31 187.22 329.6 202.32 321.77 218.81 293.38 206.53"/><polygon class="cls-1" points="310.68 174.93 323.88 157.09 347.68 176.07 336.12 191.6 310.68 174.93"/><polygon class="cls-1" points="302.99 280.71 272.86 276.72 276.81 254.9 306.12 263.53 302.99 280.71"/><polygon class="cls-1" points="419.83 117.88 404.97 126.16 389.35 100.09 406.45 90.61 419.83 117.88"/><polygon class="cls-1" points="350.99 201.36 361.48 187.11 385.25 206.12 376.41 218.03 350.99 201.36"/><polygon class="cls-1" points="409.3 181.44 389.93 158 404.29 147.59 421.3 172.76 409.3 181.44"/><polygon class="cls-1" points="401.9 187.95 391.72 198.51 368.05 178.94 381.74 165.12 401.9 187.95"/><polygon class="cls-1" points="441.12 161.04 429.64 167.49 414.04 141.4 427.67 133.83 441.12 161.04"/></g><g id="green"><polygon class="cls-2" points="261.4 509.8 264.33 540.07 237.94 541.51 237.81 511.09 261.4 509.8"/><polygon class="cls-2" points="383.72 465.09 402.43 451.11 421.81 474.23 400.71 489.97 383.72 465.09"/><polygon class="cls-2" points="413.91 441.12 428.92 425.08 452.92 444.06 434.7 463.26 413.91 441.12"/><polygon class="cls-2" points="146.94 495.12 136.34 523.65 112.12 513.08 125.23 485.65 146.94 495.12"/><polygon class="cls-2" points="221.01 541.11 194.74 538.35 199.19 508.12 222.64 511.96 221.01 541.11"/><polygon class="cls-2" points="184.07 506.48 178.03 535.73 152.7 528.16 161.33 499.83 184.07 506.48"/><polygon class="cls-2" points="299.52 503.33 306.44 530.61 280.87 536.25 276.4 507.95 299.52 503.33"/><polygon class="cls-2" points="323.16 528.17 314.14 499.12 336.12 491.86 348.01 519.2 323.16 528.17"/><polygon class="cls-2" points="370.86 473.85 350.34 485.28 363.42 512.25 386.55 499.92 370.86 473.85"/><polygon class="cls-2" points="97.19 505.29 77.16 493.37 94.01 468.06 111.84 478.61 97.19 505.29"/><polygon class="cls-2" points="439.77 412.29 450.65 396.05 477.42 412.34 463.68 431.09 439.77 412.29"/><polygon class="cls-2" points="152.19 480.86 131.81 471.99 145 444.53 162.76 452.32 152.19 480.86"/><polygon class="cls-2" points="193.47 460.87 187.3 490.71 165.76 485.45 174.62 456.35 193.47 460.87"/><polygon class="cls-2" points="274.13 493.06 269.46 462.92 288.22 459.14 294.43 488.71 274.13 493.06"/><polygon class="cls-2" points="259.47 494.66 237.79 495.81 237.58 465.49 255.78 463.95 259.47 494.66"/><polygon class="cls-2" points="223.46 495.63 201.4 493.22 205.8 463.09 225.04 465.26 223.46 495.63"/><polygon class="cls-2" points="318.71 448.99 330.44 477.04 309.6 484.61 302.29 454.94 318.71 448.99"/><polygon class="cls-2" points="119.19 430.08 133.83 438.75 119.18 465.37 102.38 455.38 119.19 430.08"/><polygon class="cls-2" points="225.98 447.5 208.39 445.62 212.83 415.5 227.57 417.14 225.98 447.5"/><polygon class="cls-2" points="179.41 407.16 168.91 435.7 152.68 428.54 165.86 401.16 179.41 407.16"/><polygon class="cls-2" points="188.76 410.27 203 413.75 198.01 444.05 179.19 439.19 188.76 410.27"/><polygon class="cls-2" points="145.75 389.95 157.1 396.62 142.43 423.23 129.02 415.27 145.75 389.95"/></g><g id="green-2" data-name="green"><polygon class="cls-3" points="536.91 371.43 561.75 353.88 576.09 376.08 549.74 391.28 536.91 371.43"/><polygon class="cls-3" points="437.43 287.39 416 278.07 426.47 249.78 450.61 260.3 437.43 287.39"/><polygon class="cls-3" points="401.64 273.06 380.27 267.98 384.85 237.73 410.56 244.03 401.64 273.06"/><polygon class="cls-3" points="580.93 478.11 610.96 473.17 613.8 499.43 583.47 501.66 580.93 478.11"/><polygon class="cls-3" points="584.14 390.97 594.76 415.16 566.31 426.29 558.01 404.02 584.14 390.97"/><polygon class="cls-3" points="572.39 440.23 600.77 430.97 606.77 456.72 577.89 463.28 572.39 440.23"/><polygon class="cls-3" points="512.39 341.54 532.65 322 550.23 341.41 527.87 359.33 512.39 341.54"/><polygon class="cls-3" points="522.23 308.69 501.48 330.93 484.28 315.45 502.12 291.57 522.23 308.69"/><polygon class="cls-3" points="451.41 294.21 471.51 306.36 488.45 281.63 466.27 267.65 451.41 294.21"/><polygon class="cls-3" points="614.43 516.26 614.02 539.57 583.68 537.49 584 516.78 614.43 516.26"/><polygon class="cls-3" points="363.78 264.91 344.28 263.51 345.15 232.19 368.25 234.82 363.78 264.91"/><polygon class="cls-3" points="565.95 480.62 568.35 502.72 537.97 504.88 535.92 485.59 565.95 480.62"/><polygon class="cls-3" points="528.12 454.68 557.09 445.25 563.2 466.56 533.54 473.3 528.12 454.68"/><polygon class="cls-3" points="516.07 368.68 492.21 387.68 479.62 373.27 502.22 353.21 516.07 368.68"/><polygon class="cls-3" points="524.72 380.62 536.48 398.88 510.25 414.09 499.89 399.06 524.72 380.62"/><polygon class="cls-3" points="543.43 411.41 552.28 431.76 523.93 442.88 516.27 425.1 543.43 411.41"/><polygon class="cls-3" points="455.69 351.82 474.23 327.73 491.13 342.07 469 363.13 455.69 351.82"/><polygon class="cls-3" points="538.22 534.46 538.48 517.45 568.87 516.96 568.52 536.51 538.22 534.46"/><polygon class="cls-3" points="500.38 433.08 507.47 449.3 479.12 460.37 473.23 446.76 500.38 433.08"/><polygon class="cls-3" points="488.45 493.54 518.44 488.49 520.27 506.14 489.96 508.27 488.45 493.54"/><polygon class="cls-3" points="486.51 483.88 482.46 469.78 511.26 459.08 516.38 477.84 486.51 483.88"/><polygon class="cls-3" points="490.2 531.29 490.36 518.13 520.74 517.68 520.49 533.27 490.2 531.29"/></g><polygon class="cls-1" points="394.19 400.6 380.31 415.75 361.79 392.75 373.9 382.81 394.19 400.6"/><path class="cls-1" d="M354.84,395.67c-19-2.57-29.27-17.33-29.27-39.31,0-28.48,17-33.79,30.13-33.79,18.75,0,31.5,13.89,31.5,39.5,0,8.17-1.13,14.54-3,19.52l8.39,7c6.81-8.19,10.58-18.92,10.58-30.79,0-26.18-17.72-42.76-46.2-42.76-34.3,0-47.22,25.27-47.22,44.82,0,20.24,13.26,44.83,46.08,44.83,1.48,0,2.91-.08,4.32-.19Z"/></svg>